<svg width="91" height="101" viewBox="0 0 91 101" fill="none" xmlns="http://www.w3.org/2000/svg">
<path d="M13.1612 100.275C9.50528 100.275 6.39778 98.9959 3.83867 96.4368C1.27956 93.8777 0 90.7702 0 87.1143V71.4463H15.9187V0L23.4143 7.52066L30.9099 0L38.4055 7.52066L45.9011 0L53.3967 7.52066L60.9174 0L68.438 7.52066L75.9587 0L83.4793 7.52066L91 0V87.1143C91 90.7702 89.7204 93.8777 87.1613 96.4368C84.6022 98.9959 81.4947 100.275 77.8388 100.275H13.1612ZM77.8388 92.7548C79.5101 92.7548 80.868 92.2326 81.9125 91.188C82.9571 90.1435 83.4793 88.7856 83.4793 87.1143V12.5344H23.4394V71.4463H72.1983V87.1143C72.1983 88.7856 72.7206 90.1435 73.7652 91.188C74.8097 92.2326 76.1676 92.7548 77.8388 92.7548ZM30.0826 32.3388V24.8182H60.1653V32.3388H30.0826ZM30.0826 49.135V41.6143H60.1653V49.135H30.0826ZM71.8223 32.3388C70.8196 32.3388 69.9421 31.9628 69.1901 31.2107C68.438 30.4587 68.062 29.5813 68.062 28.5785C68.062 27.5758 68.438 26.6983 69.1901 25.9463C69.9421 25.1942 70.8196 24.8182 71.8223 24.8182C72.8251 24.8182 73.7025 25.1942 74.4545 25.9463C75.2066 26.6983 75.5826 27.5758 75.5826 28.5785C75.5826 29.5813 75.2066 30.4587 74.4545 31.2107C73.7025 31.9628 72.8251 32.3388 71.8223 32.3388ZM71.8223 48.5083C70.8196 48.5083 69.9421 48.1322 69.1901 47.3802C68.438 46.6281 68.062 45.7507 68.062 44.7479C68.062 43.7452 68.438 42.8678 69.1901 42.1157C69.9421 41.3636 70.8196 40.9876 71.8223 40.9876C72.8251 40.9876 73.7025 41.3636 74.4545 42.1157C75.2066 42.8678 75.5826 43.7452 75.5826 44.7479C75.5826 45.7507 75.2066 46.6281 74.4545 47.3802C73.7025 48.1322 72.8251 48.5083 71.8223 48.5083ZM13.0358 92.7548H64.6777V78.9669H7.52066V87.1143C7.52066 88.7856 8.0492 90.1435 9.10627 91.188C10.1633 92.2326 11.4732 92.7548 13.0358 92.7548Z" fill="#94A3B8"/>
</svg>
