<svg width="112" height="112" viewBox="0 0 112 112" fill="none" xmlns="http://www.w3.org/2000/svg">
<path d="M19.88 87.5C25.76 83.3933 31.5933 80.2433 37.38 78.05C43.1667 75.8567 49.3733 74.76 56 74.76C62.6267 74.76 68.8567 75.8567 74.69 78.05C80.5233 80.2433 86.38 83.3933 92.26 87.5C96.3667 82.46 99.2833 77.3733 101.01 72.24C102.737 67.1067 103.6 61.6933 103.6 56C103.6 42.4667 99.05 31.15 89.95 22.05C80.85 12.95 69.5333 8.4 56 8.4C42.4667 8.4 31.15 12.95 22.05 22.05C12.95 31.15 8.4 42.4667 8.4 56C8.4 61.6933 9.28667 67.1067 11.06 72.24C12.8333 77.3733 15.7733 82.46 19.88 87.5ZM55.974 60.2C50.578 60.2 46.0367 58.348 42.35 54.644C38.6633 50.9399 36.82 46.3899 36.82 40.994C36.82 35.598 38.672 31.0567 42.376 27.37C46.0801 23.6833 50.6301 21.84 56.026 21.84C61.422 21.84 65.9633 23.692 69.65 27.396C73.3367 31.1001 75.18 35.6501 75.18 41.046C75.18 46.442 73.328 50.9833 69.624 54.67C65.9199 58.3567 61.3699 60.2 55.974 60.2ZM56.0655 112C48.3685 112 41.1133 110.53 34.3 107.59C27.4867 104.65 21.5367 100.637 16.45 95.55C11.3633 90.4633 7.35 84.5243 4.41 77.7328C1.47 70.9413 0 63.6846 0 55.9628C0 48.2409 1.47 40.9967 4.41 34.23C7.35 27.4633 11.3633 21.5367 16.45 16.45C21.5367 11.3633 27.4757 7.35 34.2672 4.41C41.0587 1.47 48.3154 0 56.0372 0C63.7591 0 71.0033 1.47 77.77 4.41C84.5367 7.35 90.4633 11.3633 95.55 16.45C100.637 21.5367 104.65 27.4648 107.59 34.2345C110.53 41.0041 112 48.2375 112 55.9345C112 63.6315 110.53 70.8867 107.59 77.7C104.65 84.5133 100.637 90.4633 95.55 95.55C90.4633 100.637 84.5352 104.65 77.7655 107.59C70.9959 110.53 63.7625 112 56.0655 112ZM56 103.6C61.1333 103.6 66.15 102.853 71.05 101.36C75.95 99.8667 80.78 97.2533 85.54 93.52C80.78 90.16 75.9267 87.5933 70.98 85.82C66.0333 84.0467 61.04 83.16 56 83.16C50.96 83.16 45.9667 84.0467 41.02 85.82C36.0733 87.5933 31.22 90.16 26.46 93.52C31.22 97.2533 36.05 99.8667 40.95 101.36C45.85 102.853 50.8667 103.6 56 103.6ZM56 51.8C59.1733 51.8 61.7633 50.7967 63.77 48.79C65.7767 46.7833 66.78 44.1933 66.78 41.02C66.78 37.8467 65.7767 35.2567 63.77 33.25C61.7633 31.2433 59.1733 30.24 56 30.24C52.8267 30.24 50.2367 31.2433 48.23 33.25C46.2233 35.2567 45.22 37.8467 45.22 41.02C45.22 44.1933 46.2233 46.7833 48.23 48.79C50.2367 50.7967 52.8267 51.8 56 51.8Z" fill="#CBD5E1"/>
</svg>
