<svg width="30" height="30" viewBox="0 0 30 30" fill="none" xmlns="http://www.w3.org/2000/svg">
<mask id="mask0_134_932" style="mask-type:luminance" maskUnits="userSpaceOnUse" x="0" y="0" width="30" height="30">
<path d="M2.84314e-05 15.3075L15.3076 29.6838L29.6839 14.3762L14.3763 -4.1604e-05L2.84314e-05 15.3075Z" fill="white"/>
</mask>
<g mask="url(#mask0_134_932)">
<path d="M13.6975 22.7705C13.1017 23.4048 12.2784 23.7765 11.4085 23.8038C10.5387 23.8311 9.69372 23.5118 9.05937 22.916C8.42502 22.3202 8.05332 21.4969 8.02603 20.6271C7.99874 19.7573 8.31811 18.9122 8.91386 18.2779L17.0005 9.66737C17.358 9.28676 17.852 9.06373 18.3739 9.04736C18.8958 9.03099 19.4028 9.22261 19.7834 9.58006C20.164 9.93751 20.387 10.4315 20.4034 10.9534C20.4198 11.4753 20.2281 11.9823 19.8707 12.3629L13.581 19.06C13.4619 19.1869 13.2972 19.2612 13.1233 19.2667C12.9493 19.2721 12.7803 19.2083 12.6534 19.0891C12.5266 18.97 12.4522 18.8053 12.4468 18.6313C12.4413 18.4574 12.5052 18.2884 12.6243 18.1615L18.914 11.4644C19.0331 11.3376 19.097 11.1685 19.0915 10.9946C19.0861 10.8206 19.0117 10.656 18.8849 10.5368C18.758 10.4177 18.589 10.3538 18.415 10.3592C18.2411 10.3647 18.0764 10.439 17.9572 10.5659L9.87058 19.1764C9.69359 19.3649 9.55545 19.5863 9.46405 19.8282C9.37265 20.07 9.32978 20.3275 9.33789 20.5859C9.34599 20.8443 9.40492 21.0986 9.5113 21.3343C9.61768 21.5699 9.76943 21.7823 9.95789 21.9593C10.1463 22.1363 10.3678 22.2744 10.6096 22.3658C10.8515 22.4572 11.109 22.5001 11.3674 22.492C11.6258 22.4839 11.8801 22.4249 12.1157 22.3186C12.3514 22.2122 12.5637 22.0604 12.7407 21.872L20.8274 13.2615C21.4232 12.6271 21.7425 11.7821 21.7152 10.9123C21.6879 10.0425 21.3162 9.21909 20.6819 8.62334C20.0475 8.02758 19.2025 7.70822 18.3327 7.73551C17.4629 7.7628 16.6395 8.1345 16.0438 8.76885L9.75418 15.4659C9.63502 15.5928 9.47036 15.6671 9.29639 15.6726C9.12243 15.6781 8.95342 15.6142 8.82655 15.495C8.69968 15.3759 8.62534 15.2112 8.61989 15.0372C8.61443 14.8633 8.6783 14.6943 8.79745 14.5674L15.0871 7.87033C15.9211 6.98224 17.0738 6.46186 18.2915 6.42365C19.5093 6.38545 20.6923 6.83256 21.5804 7.66661C22.4685 8.50067 22.9889 9.65336 23.0271 10.8711C23.0653 12.0889 22.6182 13.2719 21.7841 14.16L13.6975 22.7705Z" fill="#22C55E"/>
</g>
</svg>
