<svg width="20" height="21" viewBox="0 0 20 21" fill="none" xmlns="http://www.w3.org/2000/svg">
<path d="M2.75625 21C1.99062 21 1.33984 20.732 0.803906 20.1961C0.267969 19.6602 0 19.0094 0 18.2437V14.9625H3.33375V0L4.9035 1.575L6.47325 0L8.043 1.575L9.61275 0L11.1825 1.575L12.7575 0L14.3325 1.575L15.9075 0L17.4825 1.575L19.0575 0V18.2437C19.0575 19.0094 18.7895 19.6602 18.2536 20.1961C17.7177 20.732 17.0669 21 16.3012 21H2.75625ZM16.3012 19.425C16.6512 19.425 16.9356 19.3156 17.1544 19.0969C17.3731 18.8781 17.4825 18.5938 17.4825 18.2437V2.625H4.90875V14.9625H15.12V18.2437C15.12 18.5938 15.2294 18.8781 15.4481 19.0969C15.6669 19.3156 15.9512 19.425 16.3012 19.425ZM6.3 6.7725V5.1975H12.6V6.7725H6.3ZM6.3 10.29V8.715H12.6V10.29H6.3ZM15.0412 6.7725C14.8312 6.7725 14.6475 6.69375 14.49 6.53625C14.3325 6.37875 14.2537 6.195 14.2537 5.985C14.2537 5.775 14.3325 5.59125 14.49 5.43375C14.6475 5.27625 14.8312 5.1975 15.0412 5.1975C15.2512 5.1975 15.435 5.27625 15.5925 5.43375C15.75 5.59125 15.8287 5.775 15.8287 5.985C15.8287 6.195 15.75 6.37875 15.5925 6.53625C15.435 6.69375 15.2512 6.7725 15.0412 6.7725ZM15.0412 10.1587C14.8312 10.1587 14.6475 10.08 14.49 9.9225C14.3325 9.765 14.2537 9.58125 14.2537 9.37125C14.2537 9.16125 14.3325 8.9775 14.49 8.82C14.6475 8.6625 14.8312 8.58375 15.0412 8.58375C15.2512 8.58375 15.435 8.6625 15.5925 8.82C15.75 8.9775 15.8287 9.16125 15.8287 9.37125C15.8287 9.58125 15.75 9.765 15.5925 9.9225C15.435 10.08 15.2512 10.1587 15.0412 10.1587ZM2.73 19.425H13.545V16.5375H1.575V18.2437C1.575 18.5938 1.68569 18.8781 1.90706 19.0969C2.12844 19.3156 2.40275 19.425 2.73 19.425Z" fill="white"/>
</svg>
