<svg width="21" height="21" viewBox="0 0 21 21" fill="none" xmlns="http://www.w3.org/2000/svg">
<path d="M3.7275 16.4062C4.83 15.6362 5.92375 15.0456 7.00875 14.6344C8.09375 14.2231 9.2575 14.0175 10.5 14.0175C11.7425 14.0175 12.9106 14.2231 14.0044 14.6344C15.0981 15.0456 16.1962 15.6362 17.2987 16.4062C18.0688 15.4612 18.6156 14.5075 18.9394 13.545C19.2631 12.5825 19.425 11.5675 19.425 10.5C19.425 7.9625 18.5719 5.84062 16.8656 4.13438C15.1594 2.42812 13.0375 1.575 10.5 1.575C7.9625 1.575 5.84062 2.42812 4.13438 4.13438C2.42812 5.84062 1.575 7.9625 1.575 10.5C1.575 11.5675 1.74125 12.5825 2.07375 13.545C2.40625 14.5075 2.9575 15.4612 3.7275 16.4062ZM10.4951 11.2875C9.48337 11.2875 8.63188 10.9402 7.94062 10.2457C7.24937 9.55124 6.90375 8.69811 6.90375 7.68637C6.90375 6.67462 7.251 5.82312 7.94551 5.13188C8.64001 4.44062 9.49314 4.095 10.5049 4.095C11.5166 4.095 12.3681 4.44225 13.0594 5.13676C13.7506 5.83126 14.0962 6.68439 14.0962 7.69613C14.0962 8.70788 13.749 9.55937 13.0545 10.2506C12.36 10.9419 11.5069 11.2875 10.4951 11.2875ZM10.5123 21C9.06909 21 7.70875 20.7244 6.43125 20.1731C5.15375 19.6219 4.03813 18.8694 3.08437 17.9156C2.13063 16.9619 1.37812 15.8483 0.826875 14.5749C0.275625 13.3015 0 11.9409 0 10.493C0 9.04517 0.275625 7.68687 0.826875 6.41812C1.37812 5.14937 2.13063 4.03813 3.08437 3.08437C4.03813 2.13063 5.1517 1.37812 6.42511 0.826875C7.69851 0.275625 9.05914 0 10.507 0C11.9548 0 13.3131 0.275625 14.5819 0.826875C15.8506 1.37812 16.9619 2.13063 17.9156 3.08437C18.8694 4.03813 19.6219 5.14966 20.1731 6.41897C20.7244 7.68828 21 9.04452 21 10.4877C21 11.9309 20.7244 13.2912 20.1731 14.5687C19.6219 15.8462 18.8694 16.9619 17.9156 17.9156C16.9619 18.8694 15.8503 19.6219 14.581 20.1731C13.3117 20.7244 11.9555 21 10.5123 21ZM10.5 19.425C11.4625 19.425 12.4031 19.285 13.3219 19.005C14.2406 18.725 15.1462 18.235 16.0387 17.535C15.1462 16.905 14.2362 16.4237 13.3087 16.0912C12.3812 15.7587 11.445 15.5925 10.5 15.5925C9.555 15.5925 8.61875 15.7587 7.69125 16.0912C6.76375 16.4237 5.85375 16.905 4.96125 17.535C5.85375 18.235 6.75937 18.725 7.67812 19.005C8.59688 19.285 9.5375 19.425 10.5 19.425ZM10.5 9.7125C11.095 9.7125 11.5806 9.52437 11.9569 9.14812C12.3331 8.77187 12.5212 8.28625 12.5212 7.69125C12.5212 7.09625 12.3331 6.61062 11.9569 6.23438C11.5806 5.85812 11.095 5.67 10.5 5.67C9.905 5.67 9.41937 5.85812 9.04313 6.23438C8.66687 6.61062 8.47875 7.09625 8.47875 7.69125C8.47875 8.28625 8.66687 8.77187 9.04313 9.14812C9.41937 9.52437 9.905 9.7125 10.5 9.7125Z" fill="white"/>
</svg>
