<svg width="34" height="26" viewBox="0 0 34 26" fill="none" xmlns="http://www.w3.org/2000/svg">
<path d="M9.36381 24.0543C9.9412 24.0543 10.4093 23.6694 10.4093 23.1946C10.4093 22.7198 9.9412 22.3349 9.36381 22.3349C8.78643 22.3349 8.31836 22.7198 8.31836 23.1946C8.31836 23.6694 8.78643 24.0543 9.36381 24.0543Z" stroke="white" stroke-width="2" stroke-linecap="round" stroke-linejoin="round"/>
<path d="M20.8637 24.0543C21.4411 24.0543 21.9091 23.6694 21.9091 23.1946C21.9091 22.7198 21.4411 22.3349 20.8637 22.3349C20.2863 22.3349 19.8182 22.7198 19.8182 23.1946C19.8182 23.6694 20.2863 24.0543 20.8637 24.0543Z" stroke="white" stroke-width="2" stroke-linecap="round" stroke-linejoin="round"/>
<path d="M1 6H5.18182L7.98364 17.5118C8.07924 17.9076 8.34109 18.2631 8.72334 18.5162C9.1056 18.7692 9.58391 18.9037 10.0745 18.8959H20.2364C20.727 18.9037 21.2053 18.7692 21.5876 18.5162C21.9698 18.2631 22.2317 17.9076 22.3273 17.5118L24 10.2986H6.22727" stroke="white" stroke-width="2" stroke-linecap="round" stroke-linejoin="round"/>
<path d="M26.7955 11.0057V1.63068H28.3864V11.0057H26.7955ZM22.9034 7.11364V5.52273H32.2784V7.11364H22.9034Z" fill="white"/>
</svg>
