<svg width="25" height="26" viewBox="0 0 25 26" fill="none" xmlns="http://www.w3.org/2000/svg">
<path d="M20.0832 0.780006C19.9367 0.633546 19.738 0.55127 19.5309 0.55127C19.3237 0.55127 19.1251 0.633546 18.9786 0.780006L16.4052 3.35341L22.1972 9.14553L24.7705 6.57368C24.8432 6.50111 24.901 6.4149 24.9403 6.31999C24.9797 6.22508 25 6.12333 25 6.02057C25 5.91781 24.9797 5.81606 24.9403 5.72114C24.901 5.62623 24.8432 5.54002 24.7705 5.46745L20.0832 0.780006ZM21.0925 10.2502L15.3006 4.45809L5.14478 14.6142H5.46821C5.6754 14.6142 5.8741 14.6965 6.02061 14.843C6.16712 14.9895 6.24942 15.1883 6.24942 15.3954V16.1767H7.03064C7.23783 16.1767 7.43654 16.259 7.58304 16.4055C7.72955 16.552 7.81185 16.7507 7.81185 16.9579V17.7392H8.59307C8.80026 17.7392 8.99897 17.8215 9.14547 17.968C9.29198 18.1145 9.37429 18.3132 9.37429 18.5204V19.3017H10.1555C10.3627 19.3017 10.5614 19.384 10.7079 19.5305C10.8544 19.677 10.9367 19.8757 10.9367 20.0829V20.4063L21.0925 10.2502ZM9.42428 21.9188C9.39141 21.8314 9.37447 21.7388 9.37429 21.6454V20.8641H8.59307C8.38588 20.8641 8.18717 20.7818 8.04067 20.6353C7.89416 20.4888 7.81185 20.2901 7.81185 20.0829V19.3017H7.03064C6.82345 19.3017 6.62474 19.2193 6.47824 19.0728C6.33173 18.9263 6.24942 18.7276 6.24942 18.5204V17.7392H5.46821C5.26102 17.7392 5.06231 17.6569 4.9158 17.5104C4.7693 17.3638 4.68699 17.1651 4.68699 16.9579V16.1767H3.90578C3.81237 16.1765 3.71976 16.1596 3.63235 16.1267L3.35267 16.4048C3.27822 16.4798 3.21976 16.5691 3.18081 16.6673L0.0559445 24.4797C-0.000882141 24.6217 -0.0147933 24.7772 0.0159358 24.927C0.0466648 25.0768 0.120683 25.2143 0.228813 25.3225C0.336943 25.4306 0.474431 25.5046 0.624231 25.5353C0.774032 25.5661 0.929556 25.5522 1.07153 25.4953L8.88368 22.3704C8.9819 22.3314 9.0712 22.2729 9.14617 22.1985L9.42428 21.9188Z" fill="#64748B"/>
</svg>
